<svg viewBox="0 0 600 110" fill="none" xmlns="http://www.w3.org/2000/svg">
<path d="M0 0H100.876V96.8807H0L50.4378 48.4404L0 0Z" fill="white"/>
<path d="M600 96.8809L499.124 96.8809L499.124 0.000113601L600 0.00012207L549.562 48.4405L600 96.8809Z" fill="white"/>
<rect x="72.4028" y="15.1194" width="463.601" height="92.8807" fill="white" stroke="#D67976" stroke-width="4"/>
<path d="M151.984 77.3486L143.66 48.2577H150.379L155.194 68.4708H155.436L160.748 48.2577H166.501L171.799 68.5134H172.055L176.87 48.2577H183.589L175.265 77.3486H169.271L163.731 58.3287H163.504L157.978 77.3486H151.984ZM193.032 48.2577V77.3486H186.881V48.2577H193.032ZM222.424 48.2577V77.3486H217.112L204.456 59.039H204.242V77.3486H198.092V48.2577H203.49L216.046 66.5532H216.302V48.2577H222.424ZM226.398 53.3287V48.2577H250.29V53.3287H241.384V77.3486H235.304V53.3287H226.398ZM254.225 77.3486V48.2577H273.827V53.3287H260.375V60.2606H272.818V65.3316H260.375V72.2776H273.884V77.3486H254.225ZM278.717 77.3486V48.2577H290.194C292.391 48.2577 294.266 48.6507 295.819 49.4367C297.382 50.2132 298.57 51.3164 299.384 52.7464C300.208 54.1668 300.62 55.8382 300.62 57.7606C300.62 59.6924 300.204 61.3543 299.37 62.7464C298.537 64.1289 297.33 65.1895 295.748 65.9282C294.176 66.6668 292.273 67.0361 290.038 67.0361H282.353V62.093H289.044C290.218 62.093 291.193 61.932 291.97 61.61C292.746 61.288 293.324 60.8051 293.703 60.1611C294.091 59.5172 294.285 58.717 294.285 57.7606C294.285 56.7947 294.091 55.9803 293.703 55.3174C293.324 54.6545 292.742 54.1526 291.956 53.8117C291.179 53.4613 290.199 53.2861 289.015 53.2861H284.867V77.3486H278.717ZM294.427 64.11L301.657 77.3486H294.867L287.794 64.11H294.427ZM304.967 77.3486V48.2577H324.228V53.3287H311.117V60.2606H322.95V65.3316H311.117V77.3486H304.967ZM328.365 77.3486V48.2577H347.968V53.3287H334.516V60.2606H346.959V65.3316H334.516V72.2776H348.024V77.3486H328.365ZM352.858 77.3486V48.2577H364.335C366.532 48.2577 368.407 48.6507 369.96 49.4367C371.522 50.2132 372.711 51.3164 373.525 52.7464C374.349 54.1668 374.761 55.8382 374.761 57.7606C374.761 59.6924 374.344 61.3543 373.511 62.7464C372.678 64.1289 371.47 65.1895 369.889 65.9282C368.317 66.6668 366.413 67.0361 364.179 67.0361H356.494V62.093H363.184C364.358 62.093 365.334 61.932 366.11 61.61C366.887 61.288 367.465 60.8051 367.843 60.1611C368.232 59.5172 368.426 58.717 368.426 57.7606C368.426 56.7947 368.232 55.9803 367.843 55.3174C367.465 54.6545 366.882 54.1526 366.096 53.8117C365.32 53.4613 364.34 53.2861 363.156 53.2861H359.008V77.3486H352.858ZM368.568 64.11L375.798 77.3486H369.008L361.934 64.11H368.568ZM385.258 48.2577V77.3486H379.108V48.2577H385.258ZM390.318 77.3486V48.2577H409.921V53.3287H396.469V60.2606H408.912V65.3316H396.469V72.2776H409.978V77.3486H390.318ZM439.143 48.2577V77.3486H433.831L421.174 59.039H420.961V77.3486H414.811V48.2577H420.208L432.765 66.5532H433.021V48.2577H439.143Z" fill="#D67976"/>
</svg>
