<svg width="269" height="270" viewBox="0 0 269 270" fill="none" xmlns="http://www.w3.org/2000/svg">
<path d="M33.9869 240.906L39.9846 247.503C40.2585 247.783 40.4445 248.136 40.5193 248.52C40.5942 248.905 40.5547 249.302 40.4057 249.664C40.2567 250.026 40.0047 250.336 39.6811 250.556C39.3575 250.776 38.9764 250.896 38.5851 250.902H9.39644C9.00514 250.896 8.62405 250.776 8.30043 250.556C7.97681 250.336 7.72488 250.026 7.57588 249.664C7.42688 249.302 7.38735 248.905 7.46221 248.52C7.53706 248.136 7.723 247.783 7.99698 247.503L13.9946 240.906H13.3949C13.0036 240.9 12.6225 240.78 12.2989 240.56C11.9753 240.34 11.7233 240.03 11.5743 239.668C11.4253 239.306 11.3858 238.908 11.4607 238.524C11.5355 238.14 11.7215 237.787 11.9954 237.507L17.9931 230.91H17.5933C17.1849 230.946 16.7751 230.857 16.4194 230.653C16.0637 230.449 15.7793 230.141 15.6047 229.77C15.4301 229.399 15.3738 228.983 15.4434 228.579C15.5131 228.175 15.7052 227.802 15.9939 227.511L23.9908 218.914L31.9877 227.511C32.2763 227.802 32.4685 228.175 32.5381 228.579C32.6077 228.983 32.5514 229.399 32.3768 229.77C32.2023 230.141 31.9178 230.449 31.5621 230.653C31.2064 230.857 30.7966 230.946 30.3883 230.91H29.9884L35.9861 237.507C36.2601 237.787 36.446 238.14 36.5209 238.524C36.5957 238.908 36.5562 239.306 36.4072 239.668C36.2582 240.03 36.0063 240.34 35.6827 240.56C35.359 240.78 34.9779 240.9 34.5866 240.906H33.9869Z" stroke="white" stroke-width="2" stroke-linecap="round" stroke-linejoin="round"/>
<path d="M23.9907 256.9V250.902" stroke="white" stroke-width="2" stroke-linecap="round" stroke-linejoin="round"/>
<path d="M195.987 238.989L201.985 245.586C202.259 245.866 202.444 246.22 202.519 246.604C202.594 246.988 202.555 247.385 202.406 247.747C202.257 248.109 202.005 248.419 201.681 248.639C201.357 248.859 200.976 248.98 200.585 248.985H171.396C171.005 248.98 170.624 248.859 170.3 248.639C169.977 248.419 169.725 248.109 169.576 247.747C169.427 247.385 169.387 246.988 169.462 246.604C169.537 246.22 169.723 245.866 169.997 245.586L175.995 238.989H175.395C175.004 238.984 174.622 238.863 174.299 238.643C173.975 238.423 173.723 238.113 173.574 237.751C173.425 237.389 173.386 236.992 173.461 236.608C173.536 236.223 173.721 235.87 173.995 235.59L179.993 228.993H179.593C179.185 229.03 178.775 228.94 178.419 228.736C178.064 228.532 177.779 228.224 177.605 227.853C177.43 227.482 177.374 227.066 177.443 226.662C177.513 226.258 177.705 225.885 177.994 225.594L185.991 216.998L193.988 225.594C194.276 225.885 194.468 226.258 194.538 226.662C194.608 227.066 194.551 227.482 194.377 227.853C194.202 228.224 193.918 228.532 193.562 228.736C193.206 228.94 192.797 229.03 192.388 228.993H191.988L197.986 235.59C198.26 235.87 198.446 236.223 198.521 236.608C198.596 236.992 198.556 237.389 198.407 237.751C198.258 238.113 198.006 238.423 197.683 238.643C197.359 238.863 196.978 238.984 196.587 238.989H195.987Z" stroke="white" stroke-width="2" stroke-linecap="round" stroke-linejoin="round"/>
<path d="M185.991 254.983V248.985" stroke="white" stroke-width="2" stroke-linecap="round" stroke-linejoin="round"/>
<path d="M134.991 223.995C137.199 223.995 138.989 222.205 138.989 219.997C138.989 217.789 137.199 215.999 134.991 215.999C132.782 215.999 130.992 217.789 130.992 219.997C130.992 222.205 132.782 223.995 134.991 223.995Z" stroke="white" stroke-width="2" stroke-linecap="round" stroke-linejoin="round"/>
<path d="M131.392 218.397C121.996 219.997 114.999 228.194 114.999 237.99C114.999 239.05 115.42 240.067 116.17 240.817C116.92 241.567 117.937 241.988 118.997 241.988C120.057 241.988 121.074 241.567 121.824 240.817C122.574 240.067 122.995 239.05 122.995 237.99V235.991C122.995 234.93 123.417 233.913 124.167 233.163C124.916 232.413 125.933 231.992 126.994 231.992C128.054 231.992 129.071 232.413 129.821 233.163C130.571 233.913 130.992 234.93 130.992 235.991V243.988C130.992 245.048 131.414 246.065 132.163 246.815C132.913 247.565 133.93 247.986 134.991 247.986C136.051 247.986 137.068 247.565 137.818 246.815C138.568 246.065 138.989 245.048 138.989 243.988V235.991C138.989 234.93 139.41 233.913 140.16 233.163C140.91 232.413 141.927 231.992 142.988 231.992C144.048 231.992 145.065 232.413 145.815 233.163C146.565 233.913 146.986 234.93 146.986 235.991V237.99C146.986 239.05 147.407 240.067 148.157 240.817C148.907 241.567 149.924 241.988 150.985 241.988C152.045 241.988 153.062 241.567 153.812 240.817C154.562 240.067 154.983 239.05 154.983 237.99C154.983 228.194 147.986 219.997 138.589 218.397" stroke="white" stroke-width="2" stroke-linecap="round" stroke-linejoin="round"/>
<path d="M117.397 241.589C118.261 245.614 120.478 249.222 123.68 251.81C126.881 254.398 130.874 255.81 134.991 255.81C139.108 255.81 143.1 254.398 146.302 251.81C149.503 249.222 151.721 245.614 152.584 241.589" stroke="white" stroke-width="2" stroke-linecap="round" stroke-linejoin="round"/>
<g clip-path="url(#clip0_2206_168)">
<path d="M218.628 247.643L250.453 223.436" stroke="white" stroke-width="2" stroke-linecap="round" stroke-linejoin="round"/>
<path d="M222.437 219.627L246.644 251.452" stroke="white" stroke-width="2" stroke-linecap="round" stroke-linejoin="round"/>
<path d="M252.112 232.222L240.906 230.698L242.429 219.492" stroke="white" stroke-width="2" stroke-linecap="round" stroke-linejoin="round"/>
<path d="M216.969 238.857L228.176 240.381L226.652 251.587" stroke="white" stroke-width="2" stroke-linecap="round" stroke-linejoin="round"/>
<path d="M231.223 217.968L229.699 229.175L218.493 227.651" stroke="white" stroke-width="2" stroke-linecap="round" stroke-linejoin="round"/>
<path d="M237.858 253.111L239.382 241.905L250.588 243.428" stroke="white" stroke-width="2" stroke-linecap="round" stroke-linejoin="round"/>
</g>
<g clip-path="url(#clip1_2206_168)">
<path d="M162.009 170.211C161.981 169.683 162.057 169.154 162.233 168.655C162.41 168.156 162.683 167.697 163.037 167.304C163.751 166.509 164.752 166.031 165.82 165.975C166.887 165.918 167.933 166.288 168.727 167.003C169.522 167.717 170 168.718 170.057 169.786L170.751 202.626C170.906 205.806 169.792 208.917 167.653 211.274C165.515 213.632 162.527 215.044 159.348 215.199C156.169 215.354 153.058 214.24 150.7 212.101C148.342 209.963 146.931 206.975 146.776 203.796C146.747 203.269 146.822 202.742 146.998 202.245C147.173 201.748 147.445 201.29 147.798 200.898C148.151 200.507 148.579 200.189 149.055 199.963C149.531 199.737 150.048 199.608 150.575 199.582C151.101 199.556 151.628 199.635 152.124 199.814C152.62 199.993 153.076 200.268 153.465 200.624C153.854 200.98 154.169 201.409 154.392 201.887C154.615 202.365 154.741 202.882 154.763 203.409C154.785 203.936 154.911 204.453 155.134 204.931C155.357 205.409 155.672 205.838 156.061 206.194C156.45 206.549 156.906 206.825 157.402 207.003C157.898 207.182 158.425 207.261 158.951 207.236C159.478 207.21 159.995 207.081 160.471 206.855C160.947 206.629 161.375 206.311 161.728 205.919C162.081 205.528 162.353 205.07 162.528 204.573C162.704 204.076 162.779 203.549 162.75 203.022L162.009 170.211Z" stroke="white" stroke-width="2" stroke-linecap="round" stroke-linejoin="round"/>
<path d="M156.904 206.786L166.83 212.047" stroke="white" stroke-width="2" stroke-linecap="round" stroke-linejoin="round"/>
<path d="M170.8 203.071L162.724 198.284" stroke="white" stroke-width="2" stroke-linecap="round" stroke-linejoin="round"/>
<path d="M170.54 191.587L162.416 186.356" stroke="white" stroke-width="2" stroke-linecap="round" stroke-linejoin="round"/>
<path d="M170.171 179.936L162.096 175.149" stroke="white" stroke-width="2" stroke-linecap="round" stroke-linejoin="round"/>
</g>
<path d="M126.866 30.9881C126.688 30.2962 126.327 29.6648 125.822 29.1595C125.317 28.6543 124.685 28.2937 123.993 28.1152L111.728 24.9524C111.519 24.893 111.335 24.767 111.204 24.5934C111.072 24.4199 111.001 24.2083 111.001 23.9908C111.001 23.7733 111.072 23.5617 111.204 23.3881C111.335 23.2146 111.519 23.0885 111.728 23.0292L123.993 19.8644C124.685 19.6861 125.316 19.3257 125.821 18.8209C126.327 18.316 126.687 17.685 126.866 16.9935L130.029 4.72826C130.088 4.51818 130.214 4.3331 130.388 4.20126C130.561 4.06941 130.773 3.99805 130.992 3.99805C131.21 3.99805 131.422 4.06941 131.596 4.20126C131.77 4.3331 131.895 4.51818 131.954 4.72826L135.115 16.9935C135.294 17.6854 135.654 18.3168 136.159 18.822C136.665 19.3273 137.296 19.6879 137.988 19.8664L150.253 23.0272C150.464 23.0853 150.65 23.2111 150.783 23.3852C150.915 23.5592 150.987 23.772 150.987 23.9908C150.987 24.2096 150.915 24.4223 150.783 24.5964C150.65 24.7705 150.464 24.8962 150.253 24.9544L137.988 28.1152C137.296 28.2937 136.665 28.6543 136.159 29.1595C135.654 29.6648 135.294 30.2962 135.115 30.9881L131.952 43.2533C131.893 43.4634 131.768 43.6485 131.594 43.7803C131.42 43.9121 131.208 43.9835 130.99 43.9835C130.771 43.9835 130.559 43.9121 130.386 43.7803C130.212 43.6485 130.086 43.4634 130.027 43.2533L126.866 30.9881Z" stroke="white" stroke-width="2" stroke-linecap="round" stroke-linejoin="round"/>
<path d="M146.984 5.99756V13.9945" stroke="white" stroke-width="2" stroke-linecap="round" stroke-linejoin="round"/>
<path d="M150.983 9.99609H142.986" stroke="white" stroke-width="2" stroke-linecap="round" stroke-linejoin="round"/>
<path d="M114.997 33.9868V37.9853" stroke="white" stroke-width="2" stroke-linecap="round" stroke-linejoin="round"/>
<path d="M116.996 35.9861H112.998" stroke="white" stroke-width="2" stroke-linecap="round" stroke-linejoin="round"/>
<path d="M135.988 171.984V155.99C135.988 155.46 135.778 154.951 135.403 154.576C135.028 154.201 134.519 153.991 133.989 153.991H125.992C125.462 153.991 124.953 154.201 124.578 154.576C124.204 154.951 123.993 155.46 123.993 155.99V171.984" stroke="white" stroke-width="2" stroke-linecap="round" stroke-linejoin="round"/>
<path d="M111.998 149.992C111.997 149.411 112.124 148.836 112.369 148.308C112.614 147.781 112.971 147.313 113.415 146.937L127.41 134.944C128.131 134.334 129.046 134 129.991 134C130.935 134 131.85 134.334 132.572 134.944L146.566 146.937C147.01 147.313 147.367 147.781 147.612 148.308C147.857 148.836 147.984 149.411 147.984 149.992V167.985C147.984 169.046 147.562 170.063 146.812 170.813C146.063 171.562 145.046 171.984 143.985 171.984H115.996C114.936 171.984 113.919 171.562 113.169 170.813C112.419 170.063 111.998 169.046 111.998 167.985V149.992Z" stroke="white" stroke-width="2" stroke-linecap="round" stroke-linejoin="round"/>
<path d="M90.9844 132.994H58.9968C57.8926 132.994 56.9976 133.889 56.9976 134.993V138.992C56.9976 140.096 57.8926 140.991 58.9968 140.991H90.9844C92.0885 140.991 92.9836 140.096 92.9836 138.992V134.993C92.9836 133.889 92.0885 132.994 90.9844 132.994Z" stroke="white" stroke-width="2" stroke-linecap="round" stroke-linejoin="round"/>
<path d="M74.9907 132.994V158.984" stroke="white" stroke-width="2" stroke-linecap="round" stroke-linejoin="round"/>
<path d="M88.9852 140.991V154.985C88.9852 156.046 88.564 157.063 87.8141 157.813C87.0642 158.562 86.0472 158.984 84.9868 158.984H64.9945C63.9341 158.984 62.9171 158.562 62.1672 157.813C61.4174 157.063 60.9961 156.046 60.9961 154.985V140.991" stroke="white" stroke-width="2" stroke-linecap="round" stroke-linejoin="round"/>
<path d="M65.9942 132.994C64.6686 132.994 63.3973 132.467 62.46 131.53C61.5227 130.593 60.9961 129.321 60.9961 127.996C60.9961 126.67 61.5227 125.399 62.46 124.462C63.3973 123.524 64.6686 122.998 65.9942 122.998C67.9228 122.964 69.8127 123.9 71.4175 125.683C73.0223 127.466 74.2675 130.014 74.9907 132.994C75.7138 130.014 76.959 127.466 78.5638 125.683C80.1686 123.9 82.0585 122.964 83.9872 122.998C85.3127 122.998 86.584 123.524 87.5213 124.462C88.4586 125.399 88.9852 126.67 88.9852 127.996C88.9852 129.321 88.4586 130.593 87.5213 131.53C86.584 132.467 85.3127 132.994 83.9872 132.994" stroke="white" stroke-width="2" stroke-linecap="round" stroke-linejoin="round"/>
<path d="M116.986 191.989C116.986 191.459 117.197 190.95 117.572 190.575C117.947 190.201 118.455 189.99 118.985 189.99L122.984 189.99C123.514 189.99 124.022 190.201 124.397 190.575C124.772 190.95 124.983 191.459 124.983 191.989L124.983 201.985C124.983 203.576 124.351 205.101 123.226 206.226C122.102 207.351 120.576 207.983 118.985 207.983C118.455 207.983 117.947 207.772 117.572 207.397C117.197 207.022 116.986 206.514 116.986 205.984L116.986 191.989Z" stroke="white" stroke-width="2" stroke-linecap="round" stroke-linejoin="round"/>
<path d="M100.992 185.991L100.992 203.984C100.992 205.045 100.571 206.062 99.8212 206.812C99.0713 207.562 98.0543 207.983 96.9939 207.983L88.997 207.983C87.9365 207.983 86.9195 207.562 86.1697 206.812C85.4198 206.062 84.9985 205.045 84.9985 203.984L84.9985 185.991C84.9985 185.461 85.2092 184.953 85.5841 184.578C85.959 184.203 86.4675 183.992 86.9978 183.992L98.9931 183.992C99.5233 183.992 100.032 184.203 100.407 184.578C100.782 184.953 100.992 185.461 100.992 185.991ZM100.992 185.991L107.474 187.611C107.906 187.719 108.291 187.968 108.565 188.32C108.84 188.671 108.989 189.104 108.989 189.55L108.989 195.988" stroke="white" stroke-width="2" stroke-linecap="round" stroke-linejoin="round"/>
<path d="M88.9968 183.992L88.9968 177.995C88.9968 177.465 89.2075 176.956 89.5824 176.581C89.9573 176.206 90.4658 175.996 90.996 175.996L94.9945 175.996C95.5247 175.996 96.0332 176.206 96.4082 176.581C96.7831 176.956 96.9937 177.465 96.9937 177.995L96.9937 183.992" stroke="white" stroke-width="2" stroke-linecap="round" stroke-linejoin="round"/>
<path d="M92.9954 175.995L92.9954 167.998" stroke="white" stroke-width="2" stroke-linecap="round" stroke-linejoin="round"/>
<path d="M100.992 201.985L116.986 205.984" stroke="white" stroke-width="2" stroke-linecap="round" stroke-linejoin="round"/>
<path d="M116.986 197.987L100.992 193.988" stroke="white" stroke-width="2" stroke-linecap="round" stroke-linejoin="round"/>
<path d="M200.987 147.989L206.985 154.586C207.259 154.866 207.444 155.22 207.519 155.604C207.594 155.988 207.555 156.385 207.406 156.747C207.257 157.109 207.005 157.419 206.681 157.639C206.357 157.859 205.976 157.98 205.585 157.985H176.396C176.005 157.98 175.624 157.859 175.3 157.639C174.977 157.419 174.725 157.109 174.576 156.747C174.427 156.385 174.387 155.988 174.462 155.604C174.537 155.22 174.723 154.866 174.997 154.586L180.995 147.989H180.395C180.004 147.984 179.622 147.863 179.299 147.643C178.975 147.423 178.723 147.113 178.574 146.751C178.425 146.389 178.386 145.992 178.461 145.608C178.536 145.223 178.721 144.87 178.995 144.59L184.993 137.993H184.593C184.185 138.03 183.775 137.94 183.419 137.736C183.064 137.532 182.779 137.224 182.605 136.853C182.43 136.482 182.374 136.066 182.443 135.662C182.513 135.258 182.705 134.885 182.994 134.594L190.991 125.998L198.988 134.594C199.276 134.885 199.468 135.258 199.538 135.662C199.608 136.066 199.551 136.482 199.377 136.853C199.202 137.224 198.918 137.532 198.562 137.736C198.206 137.94 197.797 138.03 197.388 137.993H196.988L202.986 144.59C203.26 144.87 203.446 145.223 203.521 145.608C203.596 145.992 203.556 146.389 203.407 146.751C203.258 147.113 203.006 147.423 202.683 147.643C202.359 147.863 201.978 147.984 201.587 147.989H200.987Z" stroke="white" stroke-width="2" stroke-linecap="round" stroke-linejoin="round"/>
<path d="M190.991 163.983V157.985" stroke="white" stroke-width="2" stroke-linecap="round" stroke-linejoin="round"/>
<g clip-path="url(#clip2_2206_168)">
<path d="M212.147 183.644L201.117 178.53C199.96 177.997 198.639 177.944 197.443 178.383C196.247 178.821 195.274 179.715 194.735 180.869L191.643 187.539C191.11 188.696 191.057 190.017 191.496 191.213C191.934 192.409 192.828 193.382 193.982 193.921L205.012 199.034" stroke="white" stroke-width="2" stroke-linecap="round" stroke-linejoin="round"/>
<path d="M202.073 185.206L204.452 180.076" stroke="white" stroke-width="2" stroke-linecap="round" stroke-linejoin="round"/>
<path d="M227.725 197.098L230.103 191.968" stroke="white" stroke-width="2" stroke-linecap="round" stroke-linejoin="round"/>
<path d="M222.408 188.4L233.437 193.514C235.849 194.631 236.894 197.485 235.777 199.896L232.685 206.565C231.567 208.976 228.714 210.022 226.303 208.904L215.273 203.791" stroke="white" stroke-width="2" stroke-linecap="round" stroke-linejoin="round"/>
<path d="M227.361 177.667C227.99 176.311 228.055 174.761 227.54 173.358C227.026 171.954 225.976 170.812 224.62 170.184C223.264 169.555 221.714 169.49 220.31 170.005C218.907 170.519 217.765 171.569 217.136 172.925L201.268 207.165C200.991 207.759 200.865 208.412 200.9 209.067L201.415 218.145C201.426 218.325 201.485 218.499 201.587 218.648C201.689 218.797 201.829 218.915 201.993 218.991C202.157 219.067 202.338 219.097 202.517 219.078C202.697 219.059 202.868 218.992 203.012 218.884L210.275 213.411C210.798 213.017 211.215 212.501 211.491 211.907L227.361 177.667Z" stroke="white" stroke-width="2" stroke-linecap="round" stroke-linejoin="round"/>
<path d="M214.525 178.513L224.786 183.27" stroke="white" stroke-width="2" stroke-linecap="round" stroke-linejoin="round"/>
</g>
<path d="M96.9844 228.994H64.9968C63.8926 228.994 62.9976 229.889 62.9976 230.993V234.992C62.9976 236.096 63.8926 236.991 64.9968 236.991H96.9844C98.0885 236.991 98.9836 236.096 98.9836 234.992V230.993C98.9836 229.889 98.0885 228.994 96.9844 228.994Z" stroke="white" stroke-width="2" stroke-linecap="round" stroke-linejoin="round"/>
<path d="M80.9907 228.994V254.984" stroke="white" stroke-width="2" stroke-linecap="round" stroke-linejoin="round"/>
<path d="M94.9852 236.991V250.985C94.9852 252.046 94.564 253.063 93.8141 253.813C93.0642 254.562 92.0472 254.984 90.9868 254.984H70.9945C69.9341 254.984 68.9171 254.562 68.1672 253.813C67.4174 253.063 66.9961 252.046 66.9961 250.985V236.991" stroke="white" stroke-width="2" stroke-linecap="round" stroke-linejoin="round"/>
<path d="M71.9942 228.994C70.6686 228.994 69.3973 228.467 68.46 227.53C67.5227 226.593 66.9961 225.321 66.9961 223.996C66.9961 222.67 67.5227 221.399 68.46 220.462C69.3973 219.524 70.6686 218.998 71.9942 218.998C73.9228 218.964 75.8127 219.9 77.4175 221.683C79.0223 223.466 80.2675 226.014 80.9907 228.994C81.7138 226.014 82.959 223.466 84.5638 221.683C86.1686 219.9 88.0585 218.964 89.9872 218.998C91.3127 218.998 92.584 219.524 93.5213 220.462C94.4586 221.399 94.9852 222.67 94.9852 223.996C94.9852 225.321 94.4586 226.593 93.5213 227.53C92.584 228.467 91.3127 228.994 89.9872 228.994" stroke="white" stroke-width="2" stroke-linecap="round" stroke-linejoin="round"/>
<g clip-path="url(#clip3_2206_168)">
<path d="M47.6379 215.537C48.0245 212.819 48.1229 210.374 49.8893 208.156C51.6496 206.478 53.982 205.533 56.4137 205.511C57.5262 205.343 58.5806 204.905 59.4849 204.235C60.3891 203.566 61.1158 202.685 61.6014 201.67C62.087 200.655 62.3167 199.537 62.2706 198.413C62.2245 197.288 61.9039 196.193 61.3368 195.221C62.2839 194.594 63.0347 193.712 63.5029 192.678C63.9711 191.643 64.1376 190.497 63.9834 189.372C63.8291 188.247 63.3602 187.188 62.6308 186.317C61.9014 185.447 60.941 184.8 59.8602 184.451C60.3553 183.539 60.6066 182.514 60.5896 181.476C60.5726 180.438 60.288 179.422 59.7633 178.526C59.2386 177.63 58.4916 176.885 57.5945 176.363C56.6974 175.84 55.6806 175.558 54.6425 175.544C54.6618 174.752 54.5248 173.964 54.2395 173.225C53.9543 172.486 53.5262 171.81 52.9799 171.237C52.4335 170.663 51.7796 170.203 51.0553 169.882C50.3311 169.561 49.5508 169.386 48.7589 169.367C47.967 169.348 47.1791 169.485 46.4401 169.77C45.7012 170.055 45.0257 170.483 44.4521 171.03C43.2938 172.133 42.6213 173.651 42.5824 175.251C41.5449 175.215 40.5156 175.447 39.5942 175.926C38.6728 176.404 37.8905 177.112 37.3229 177.981C36.7554 178.85 36.4218 179.852 36.3545 180.888C36.2872 181.924 36.4884 182.959 36.9387 183.895C35.8422 184.191 34.8515 184.79 34.0807 185.624C33.3099 186.458 32.7902 187.493 32.5815 188.61C32.3728 189.726 32.4836 190.879 32.901 191.935C33.3184 192.991 34.0256 193.908 34.9411 194.58C34.3376 195.52 33.9715 196.592 33.8744 197.705C33.7773 198.818 33.9521 199.937 34.3836 200.968C34.8152 201.998 35.4906 202.908 36.3518 203.619C37.2129 204.33 38.2341 204.822 39.3272 205.051C41.6873 205.545 44.3584 206.075 45.7474 208.055C47.3584 210.431 47.396 212.749 47.6379 215.537Z" stroke="white" stroke-width="2" stroke-linecap="round" stroke-linejoin="round"/>
<path d="M47.6381 215.537L48.5254 178.991" stroke="white" stroke-width="2" stroke-linecap="round" stroke-linejoin="round"/>
</g>
<g clip-path="url(#clip4_2206_168)">
<path d="M109.556 71.1344C109.029 71.0766 108.497 71.1231 107.989 71.2711C107.48 71.4191 107.006 71.6658 106.593 71.997C105.759 72.666 105.225 73.6389 105.109 74.7017C104.992 75.7644 105.302 76.8299 105.971 77.6639C106.64 78.4978 107.613 79.0319 108.676 79.1485L141.438 81.6962C144.605 82.0305 147.775 81.0931 150.25 79.0903C152.726 77.0875 154.305 74.1832 154.639 71.0165C154.973 67.8497 154.036 64.6798 152.033 62.2042C150.03 59.7285 147.126 58.1499 143.959 57.8156C143.435 57.7569 142.904 57.8025 142.398 57.9497C141.891 58.0969 141.419 58.3429 141.008 58.6735C140.597 59.004 140.255 59.4127 140.002 59.8758C139.75 60.3389 139.591 60.8475 139.536 61.3721C139.481 61.8967 139.53 62.4271 139.681 62.9326C139.831 63.4382 140.08 63.909 140.414 64.3179C140.747 64.7268 141.158 65.0657 141.623 65.3152C142.087 65.5647 142.597 65.7197 143.122 65.7715C143.647 65.8232 144.156 65.9782 144.621 66.2277C145.086 66.4772 145.497 66.8161 145.83 67.225C146.164 67.6339 146.413 68.1047 146.563 68.6103C146.714 69.1158 146.763 69.6462 146.708 70.1708C146.652 70.6954 146.494 71.204 146.242 71.6671C145.989 72.1302 145.647 72.5389 145.236 72.8694C144.825 73.2 144.353 73.446 143.846 73.5932C143.34 73.7404 142.809 73.786 142.285 73.7273L109.556 71.1344Z" stroke="white" stroke-width="2" stroke-linecap="round" stroke-linejoin="round"/>
<path d="M146.374 68.1005L151.068 78.311" stroke="white" stroke-width="2" stroke-linecap="round" stroke-linejoin="round"/>
<path d="M141.879 81.7695L137.553 73.4336" stroke="white" stroke-width="2" stroke-linecap="round" stroke-linejoin="round"/>
<path d="M130.424 80.8616L125.657 72.4523" stroke="white" stroke-width="2" stroke-linecap="round" stroke-linejoin="round"/>
<path d="M118.807 79.8362L114.482 71.5003" stroke="white" stroke-width="2" stroke-linecap="round" stroke-linejoin="round"/>
</g>
<path d="M139.999 109.991H179.983" stroke="white" stroke-width="2" stroke-linecap="round" stroke-linejoin="round"/>
<path d="M159.991 89.9985V129.983" stroke="white" stroke-width="2" stroke-linecap="round" stroke-linejoin="round"/>
<path d="M175.984 117.988L167.988 109.991L175.984 101.994" stroke="white" stroke-width="2" stroke-linecap="round" stroke-linejoin="round"/>
<path d="M143.997 101.994L151.994 109.991L143.997 117.988" stroke="white" stroke-width="2" stroke-linecap="round" stroke-linejoin="round"/>
<path d="M167.988 93.9968L159.991 101.994L151.994 93.9968" stroke="white" stroke-width="2" stroke-linecap="round" stroke-linejoin="round"/>
<path d="M151.994 125.984L159.991 117.988L167.988 125.984" stroke="white" stroke-width="2" stroke-linecap="round" stroke-linejoin="round"/>
<path d="M106.481 115.169L86.7422 102.083C85.8044 101.461 85.152 100.492 84.9285 99.3897C84.705 98.2869 84.9287 97.1405 85.5505 96.2026C86.1722 95.2648 87.1411 94.6124 88.2439 94.3889C89.3467 94.1654 90.4931 94.3891 91.4309 95.0109L111.169 108.097" stroke="white" stroke-width="2" stroke-linecap="round" stroke-linejoin="round"/>
<path d="M101.792 122.242L111.222 128.493" stroke="white" stroke-width="2" stroke-linecap="round" stroke-linejoin="round"/>
<path d="M110.043 127.712L113.034 123.199C113.62 122.315 114.534 121.7 115.573 121.489L117.87 121.024L121.403 115.696C123.145 113.066 123.782 109.857 123.175 106.762L121.817 99.8171L120.575 101.946C119.699 103.457 118.513 104.765 117.094 105.785C115.675 106.804 114.057 107.511 112.345 107.859L109.209 108.494L106.083 113.209L106.549 115.506C106.759 116.546 106.548 117.627 105.962 118.511L102.971 123.023" stroke="white" stroke-width="2" stroke-linecap="round" stroke-linejoin="round"/>
<defs>
<clipPath id="clip0_2206_168">
<rect width="47.9814" height="47.9814" fill="white" transform="translate(200.922 230.969) rotate(-37.2577)"/>
</clipPath>
<clipPath id="clip1_2206_168">
<rect width="47.9814" height="47.9814" fill="white" transform="translate(194.317 199.344) rotate(147.226)"/>
</clipPath>
<clipPath id="clip2_2206_168">
<rect width="47.9814" height="47.9814" fill="white" transform="translate(182.929 179.448) rotate(-20.1282)"/>
</clipPath>
<clipPath id="clip3_2206_168">
<rect width="41.359" height="41.359" fill="white" transform="translate(18.9929 190.463) rotate(-43.6092)"/>
</clipPath>
<clipPath id="clip4_2206_168">
<rect width="48" height="48" fill="white" transform="matrix(0.587903 -0.808932 -0.808932 -0.587903 136.829 105.048)"/>
</clipPath>
</defs>
</svg>
